# xmcd
#
# Track frame offsets:
# 150
# 6382
# 29677
# 53265
# 66880
# 94870
# 111362
# 141307
# 154330
# 169720
# 193762
# 218585
# 239475
# 253582
# 272035
# 293552
#
# Disc length: 3929 seconds
#
#
# Revision: 0
# Processed by: cddbd v1.5.2PL0 Copyright (c) Steve Scherf et al.
# Submitted via: FreeRIP 2.944 
#
DISCID=eb0f5710
DTITLE=McMurtry-L-Berry4 - Folly-Glory1
DYEAR=2004
DGENRE=Booty Bass
TTITLE0=FG 101
TTITLE1=FG 102
TTITLE2=FG 103
TTITLE3=FG 104
TTITLE4=FG 105
TTITLE5=FG 106
TTITLE6=FG 107
TTITLE7=FG 108
TTITLE8=FG 109
TTITLE9=FG 110
TTITLE10=FG 111
TTITLE11=FG 112
TTITLE12=FG 113
TTITLE13=FG 114
TTITLE14=FG 115
TTITLE15=FG 117
EXTD=Folly and Glory by Larry McMurtry 7 CDs 2004\n4th Berrybender Narrative Simon and Schuster\nread by Alfred Molina - Booty - country\n
EXTT0=
EXTT1=
EXTT2=
EXTT3=
EXTT4=
EXTT5=
EXTT6=
EXTT7=
EXTT8=
EXTT9=
EXTT10=
EXTT11=
EXTT12=
EXTT13=
EXTT14=
EXTT15=
PLAYORDER=
